<svg width="82" height="95" viewBox="0 0 82 95" fill="none" xmlns="http://www.w3.org/2000/svg">
<path fill-rule="evenodd" clip-rule="evenodd" d="M29.5392 18.9482C24.6015 20.5872 21.116 25.0151 24.8338 29.6731C25.7052 30.7657 27.3608 31.7433 29.5392 32.4909V18.9482ZM47.0536 15.2679C53.734 17.2231 59.5431 21.2197 63.7837 26.424H51.7589C50.539 22.7436 49.0286 18.9482 47.0536 15.2679ZM37.2072 13.7439C38.9499 13.7439 40.7217 13.859 42.4644 14.1752C44.8751 18.2869 46.6179 22.3123 47.9249 26.424H37.2072V13.7439ZM53.066 30.8807H66.8625C69.2733 35.2225 70.8127 40.0817 71.2484 45.401H54.9539C54.8087 40.513 54.1697 35.6538 53.066 30.8807ZM37.2072 30.8807H49.232C50.4519 35.6538 51.0909 40.513 51.0909 45.401H37.1781V30.8807H37.2072ZM54.8087 49.714H71.2193C70.7836 54.9183 69.2442 59.8926 66.8335 64.2343H52.6012C53.8211 59.375 54.6054 54.602 54.8087 49.714ZM37.2072 49.714H50.8875C50.568 54.602 49.6967 59.3462 48.2735 64.2343H37.2072V49.714V49.714ZM51.3232 68.576H63.7837C59.3979 73.9815 53.3854 78.007 46.6179 79.9622C48.4768 76.1668 49.9871 72.3714 51.3232 68.576ZM37.2072 3.7954C48.4768 3.7954 59.8626 8.02209 68.4019 16.5905C85.5968 33.5835 85.5968 61.4452 68.4019 78.5533C59.8626 87.0067 48.4768 91.2333 37.2072 91.2333V84.9652C46.8502 84.9652 56.5804 81.2848 63.8999 74.0103C78.5678 59.49 78.5678 35.6538 63.8999 21.1335C56.5804 13.8877 46.8212 10.1786 37.2072 10.1786V3.7954ZM37.2072 68.576H46.9374C45.5141 72.8027 43.6552 76.7993 41.564 81.026C40.1408 81.141 38.6013 81.2561 37.1781 81.2561V68.576H37.2072ZM33.6927 95H29.5392V84.9364C13.5642 83.6426 2.93358 77.5757 0 61.4165L21.5517 58.9149C22.6554 64.7518 23.9625 67.9146 29.5392 70.6174V51.8705C22.4231 49.9153 17.282 48.1901 14.2322 46.7812C1.10373 40.398 -0.551861 22.0823 9.75925 12.335C14.2322 8.10835 20.7965 5.72185 29.5682 5.29056V0H33.7217V95H33.6927Z" fill="#09B3DD"/>
</svg>
