<svg width="95" height="81" viewBox="0 0 95 81" fill="none" xmlns="http://www.w3.org/2000/svg">
<path fill-rule="evenodd" clip-rule="evenodd" d="M37.912 6.47298H57.088V13.1962H63.5953V6.00395C63.5953 2.72053 60.8604 0 57.4338 0H37.409C34.0768 0 31.3733 2.72053 31.3733 6.00395V13.1962H37.8805V6.47298H37.912ZM0 34.2725V71.2656C0 76.3315 4.27531 80.4592 9.24222 80.4592H85.632C90.8504 80.4592 95 76.3315 95 71.2656V34.7416V24.4848C95 19.5441 90.8504 15.2913 85.632 15.2913H78.0559H63.5953H57.088H37.912H31.3733H9.24222C4.27531 15.2913 0 19.5128 0 24.4848V34.2725ZM74.8494 37.9312V33.2093L74.2522 32.9592C73.3091 32.365 72.366 31.7709 71.2972 31.3018V27.2992L70.4798 27.049C62.5579 24.1096 54.6046 27.393 47.2799 30.8328C38.0377 34.7103 29.5185 38.369 20.8736 31.6458L18.7359 30.1135V41.7775V46.5931V59.5704L19.2075 59.8206C20.2763 60.7587 21.3451 61.2278 22.2882 61.8219V65.8245L23.0113 66.2936C23.9543 66.6376 25.1489 67.1066 26.312 67.4819V69.1392C42.9103 74.2051 59.4772 50.7521 76.2955 65.0115L74.8494 37.9312ZM22.2882 36.868V59.0076C21.9424 58.7574 21.5652 58.5385 21.3451 58.2884V35.1794C30.4616 40.7143 39.4524 36.8367 48.223 33.053C55.3276 29.9885 62.0864 27.1741 68.8451 29.1754V30.4888C67.179 30.1448 65.8901 30.0197 64.0983 30.0197C58.4083 30.0197 52.7184 32.3651 47.2799 34.7416C41.9358 36.9931 36.3716 39.3383 31.1846 39.3383C28.5754 39.3383 26.4378 38.8693 24.0801 37.9312L22.2882 36.868ZM51.178 59.5079C40.1439 64.2298 40.0496 46.4368 51.178 41.496C60.8918 37.4621 63.721 54.1919 51.178 59.5079ZM72.366 36.2738C56.9623 28.0184 41.5586 47.5938 26.2806 42.8719C26.2806 50.1893 26.2806 57.4753 26.2806 64.7926C25.6833 64.6676 25.2118 64.5424 24.7402 64.3236V40.7456C26.7522 41.6837 28.8898 41.9338 31.1218 41.9338C36.9375 41.9338 42.6274 39.5885 48.1916 37.1182C53.41 34.7729 58.9742 32.5214 64.0668 32.5214C67.0218 32.5214 69.7568 33.2406 72.366 34.7729V36.2738ZM52.8127 53.7228C52.8127 53.3789 52.687 53.0036 52.4669 52.6596C52.3412 52.4095 51.8696 52.1906 51.2723 52.0655C50.3293 51.4714 49.5119 50.8772 48.9146 50.4082C48.5688 49.9391 48.1916 49.2199 48.1916 48.4068C48.1916 47.5938 48.5374 46.7495 48.9146 46.4055C49.5119 45.9365 50.2349 45.6863 51.0523 45.6863V44.154L52.1211 44.2791V45.8114C52.9385 46.1554 53.6615 46.5306 54.133 47.2185C54.6046 47.8127 54.8561 48.6257 54.8561 49.47L52.8441 49.345C52.8441 48.7508 52.7184 48.4068 52.4983 47.9378C52.3726 47.7189 51.9011 47.5938 51.4295 47.3437C51.178 47.3437 50.7065 47.5938 50.6122 47.6876C50.4864 47.9065 50.3607 48.2818 50.3607 48.5006C50.3607 48.8446 50.4864 49.2199 50.6122 49.4388C50.8637 49.6577 51.2095 50.0329 51.8068 50.2518C52.8756 50.8459 53.5672 51.315 54.1645 51.7841C54.636 52.3782 54.9818 53.0661 54.9818 53.9104C54.9818 54.7548 54.636 55.3176 54.1645 55.7867C53.5672 56.1307 52.8441 56.3808 52.0268 56.3808V57.9131L50.8322 57.6629V56.2557C50.0149 56.1307 49.4176 55.7867 48.6946 55.1926C48.0973 54.4733 47.7515 53.6603 47.7515 52.5971L49.8891 52.8473C49.8891 53.4414 50.0149 53.9104 50.3607 54.2544C50.6122 54.5984 51.0837 54.7235 51.4295 54.7235C51.9011 54.9737 52.3726 54.7235 52.4983 54.5984C52.7184 54.442 52.8127 54.1919 52.8127 53.7228Z" fill="#09B3DD"/>
</svg>
