<svg width="100" height="100" viewBox="0 0 100 100" fill="none" xmlns="http://www.w3.org/2000/svg">
<path d="M16.309 14.1992C13.145 15.332 11.0942 17.7344 10.5278 20.9961C10.2348 22.6758 10.5278 24.5117 11.3481 26.1523C12.0512 27.539 13.8676 29.3359 15.2544 29.9805C19.5122 31.9336 24.434 30.2148 26.5044 26.0156C27.227 24.5508 27.2465 24.4922 27.2465 22.2656C27.2465 20.0976 27.227 19.9609 26.5825 18.6523C25.7036 16.875 24.2973 15.4883 22.559 14.6484C21.3286 14.043 20.9965 13.9844 19.2387 13.9258C17.7348 13.8672 17.0512 13.9453 16.309 14.1992ZM21.4262 17.1094C25.0004 18.8086 25.8012 23.6523 22.9497 26.4258C21.7583 27.5781 20.645 28.0273 18.9458 28.0273C16.5044 28.0273 14.6098 26.8164 13.5942 24.6289C13.0083 23.3398 13.0278 21.1328 13.6528 19.8828C15.0981 16.9141 18.4575 15.7226 21.4262 17.1094Z" fill="white"/>
<path d="M36.4847 14.4922C36.1722 14.8437 35.2542 15.8984 34.4339 16.8555C33.2229 18.3203 33.0081 18.6914 33.1057 19.1015C33.2425 19.6289 36.5237 23.5156 37.1292 23.8281C37.5979 24.1015 38.4378 23.8867 38.6722 23.4375C39.0432 22.7539 38.887 22.0508 38.1643 21.1719L37.4612 20.3125H50.0003H62.5393L61.8362 21.1719C61.0159 22.168 60.9182 23.0273 61.5237 23.6328C61.9534 24.0625 62.344 24.1211 62.8909 23.8281C63.4768 23.5156 66.7581 19.6289 66.8948 19.1015C66.9925 18.6914 66.7776 18.3203 65.5667 16.8555C63.3206 14.1992 62.9886 13.8672 62.4417 13.8672C61.8948 13.8672 61.1721 14.3945 61.1136 14.8437C61.0354 15.5078 61.1721 15.8203 61.8167 16.6015C62.1878 17.0508 62.5003 17.4609 62.5003 17.5C62.5003 17.539 56.8557 17.5781 49.9807 17.5781H37.4417L37.969 16.9336C38.8675 15.8398 39.0823 15.3125 38.8675 14.7656C38.4768 13.7109 37.3245 13.5937 36.4847 14.4922Z" fill="white"/>
<path d="M78.3984 14.2188C76.1133 15.0196 74.4727 16.5039 73.3789 18.75C72.793 19.9414 72.7539 20.1172 72.7539 22.2656C72.7539 24.4922 72.7734 24.5508 73.4961 26.0156C76.0352 31.1719 82.6953 32.4024 86.8164 28.4961C91.289 24.2774 90.1367 17.1875 84.5898 14.5899C83.457 14.043 83.0664 13.9649 81.3476 13.9258C79.8437 13.8672 79.1601 13.9453 78.3984 14.2188ZM83.4375 17.0313C84.4922 17.4805 85.957 18.9453 86.4453 20.0391C86.9336 21.1719 86.914 23.4961 86.4062 24.6289C85.8008 25.918 84.8828 26.8555 83.6328 27.4805C82.1484 28.2031 80.0586 28.2617 78.6914 27.5781C74.3945 25.4688 74.1406 19.6875 78.2422 17.2656C79.7656 16.3672 81.6601 16.2891 83.4375 17.0313Z" fill="white"/>
<path d="M9.02355 34.082C6.62121 34.6094 4.68761 36.1523 3.5548 38.4375L2.83215 39.9219L2.77355 49.5898C2.71496 60.4688 2.69543 60.2539 4.12121 61.6992C5.35168 62.9297 7.53918 63.418 9.02355 62.793C9.33605 62.6758 9.35558 63.3008 9.41418 72.5C9.47277 82.2461 9.47277 82.3242 9.90246 83.1445C10.4493 84.1602 11.5236 85.2148 12.4611 85.6641C13.6134 86.2305 15.7423 86.2695 16.9337 85.7422C17.4806 85.5078 18.1251 85.1172 18.379 84.8438L18.8087 84.375L19.4728 84.8828C20.6056 85.7422 21.6798 86.1328 23.047 86.1328C24.6876 86.1328 25.9962 85.5273 27.1095 84.2773C28.5157 82.6953 28.5157 82.6172 28.5157 72.0313V62.6953L29.0236 62.8906C30.6251 63.4961 33.1446 62.7344 34.1603 61.3086C35.1564 59.9609 35.1759 59.6094 35.1173 49.5117C35.0587 40.3906 35.0392 40.1172 34.629 39.1016C33.7306 36.875 31.8751 35.0977 29.59 34.2578C28.6915 33.9258 27.8126 33.8867 19.4337 33.8477C12.129 33.8086 10.0001 33.8672 9.02355 34.082ZM29.3361 37.0703C30.5079 37.6563 31.7189 39.0039 32.1095 40.1758C32.5587 41.5039 32.5782 58.5156 32.129 59.375C31.5236 60.5273 30.0392 60.7227 29.0821 59.7852L28.5157 59.2188V53.4961C28.5157 47.8906 28.5157 47.7734 28.0861 47.3242C27.5587 46.7578 26.6993 46.7383 26.172 47.2656C25.7814 47.6563 25.7814 47.9102 25.7814 64.4922C25.7814 80.1563 25.7618 81.3867 25.4298 82.0117C24.4532 83.9453 21.9728 84.0625 20.7618 82.2461L20.3126 81.582V71.582C20.3126 61.7969 20.3126 61.582 19.922 61.1719C19.4142 60.625 18.4962 60.6055 17.9689 61.1328C17.5978 61.5039 17.5782 61.7773 17.5782 71.4258C17.5782 80.4883 17.5392 81.4063 17.2267 82.0117C16.2501 83.9453 13.7696 84.0625 12.5587 82.2461L12.1095 81.582V64.7461C12.1095 48.0078 12.1095 47.9102 11.6993 47.3828C11.2111 46.7578 10.3321 46.6992 9.76574 47.2656C9.39465 47.6367 9.37511 47.9102 9.37511 53.2422C9.37511 56.9531 9.29699 58.9648 9.16027 59.2383C8.53527 60.4688 6.9923 60.7422 6.03527 59.7852L5.46886 59.2188V49.9609V40.7227L5.93761 39.7461C6.56261 38.4375 7.73449 37.3438 9.02355 36.8945C9.98058 36.5625 10.7228 36.5234 19.2384 36.582C28.4181 36.6211 28.4181 36.6211 29.3361 37.0703Z" fill="white"/>
<path d="M71.2894 34.0625C68.2425 34.7461 65.8988 36.9922 65.137 39.9805C64.8831 40.9961 64.8441 42.5195 64.8831 50.4297C64.9417 59.5312 64.9417 59.6875 65.3714 60.4687C66.4847 62.5586 69.1214 63.6133 71.1527 62.793C71.4652 62.6562 71.4847 63.1836 71.4847 72.0117C71.4847 82.6172 71.4847 82.6953 72.8909 84.2773C73.9847 85.5078 75.3128 86.1328 76.8753 86.1328C78.3206 86.1328 79.1214 85.8789 80.2933 85.0391L81.2113 84.4141L81.6409 84.8633C82.4417 85.7031 83.887 86.1719 85.43 86.0937C87.598 85.9766 89.0824 85.0391 90.0785 83.1445C90.5277 82.3242 90.5277 82.2656 90.5863 72.5195L90.6449 62.7148L91.1331 62.8906C91.8753 63.1836 93.6136 63.125 94.3949 62.793C95.4691 62.3437 96.387 61.4258 96.8558 60.3516C97.2855 59.375 97.2855 59.2383 97.2269 49.6484L97.1683 39.9219L96.4456 38.4375C95.2738 36.1133 93.3792 34.6094 90.8988 34.082C89.1214 33.7109 72.9691 33.6914 71.2894 34.0625ZM90.8011 36.8359C92.0902 37.207 93.4574 38.418 94.0628 39.7461L94.5316 40.7227V49.9609V59.2187L93.9652 59.7852C93.0081 60.7422 91.4652 60.4687 90.8402 59.2383C90.7035 58.9648 90.6253 56.9531 90.6253 53.2422C90.6253 47.9102 90.6058 47.6367 90.2347 47.2656C89.6683 46.6992 88.7894 46.7578 88.3011 47.3828C87.891 47.9102 87.891 48.0078 87.891 64.7461V81.582L87.4417 82.2461C86.2308 84.0625 83.7503 83.9453 82.7738 82.0117C82.4613 81.4062 82.4222 80.4883 82.4222 71.4258C82.4222 61.7773 82.4027 61.5039 82.0316 61.1328C81.5042 60.6055 80.5863 60.625 80.0784 61.1719C79.6878 61.582 79.6878 61.7969 79.6878 71.582V81.582L79.2386 82.2461C78.0277 84.0625 75.5472 83.9453 74.5706 82.0117C74.2386 81.3867 74.2191 80.1562 74.2191 64.4922C74.2191 47.9102 74.2191 47.6562 73.8284 47.2656C73.3206 46.7578 72.5003 46.7773 71.9339 47.3047L71.4847 47.7148V53.4766V59.2187L70.9183 59.7852C70.1566 60.5273 69.0238 60.5664 68.223 59.8828L67.6761 59.4141L67.6175 50.3516C67.5784 43.8086 67.6175 41.0742 67.7933 40.4687C68.262 38.7891 69.805 37.2461 71.4456 36.7969C72.1097 36.6211 74.7269 36.543 81.0745 36.543C88.4378 36.5234 89.9417 36.5625 90.8011 36.8359Z" fill="white"/>
</svg>
