<svg width="25" height="25" viewBox="0 0 25 25" fill="none" xmlns="http://www.w3.org/2000/svg">
<g clip-path="url(#clip0_66_34)">
<path d="M0 25L1.79938 18.3154C0.779258 16.4853 0.247946 14.4361 0.247946 12.3516C0.240861 5.53985 5.79484 0 12.624 0C19.4531 0 25.0071 5.53985 25.0071 12.3516C25.0071 19.1634 19.4531 24.7032 12.624 24.7032C10.5767 24.7032 8.55058 24.1874 6.73704 23.2052L0 25ZM7.07708 20.6967L7.50213 20.9511C9.06064 21.8768 10.8317 22.3643 12.624 22.3643C18.1567 22.3643 22.6622 17.8703 22.6622 12.3516C22.6622 6.83296 18.1567 2.33889 12.624 2.33889C7.09124 2.33889 2.58572 6.83296 2.58572 12.3516C2.58572 14.1747 3.09578 15.9695 4.05214 17.5452L4.31425 17.9692L3.3083 21.7001L7.07708 20.6967Z" fill="white"/>
<path fill-rule="evenodd" clip-rule="evenodd" d="M17.2289 14.0687C16.7188 13.7649 16.0529 13.4257 15.4578 13.673C14.9974 13.8638 14.6998 14.5775 14.4023 14.9449C14.2464 15.1357 14.0693 15.164 13.8285 15.065C12.0999 14.3796 10.7752 13.2278 9.81884 11.638C9.6559 11.3906 9.68424 11.1999 9.88259 10.9667C10.173 10.6275 10.5343 10.2459 10.6123 9.78663C10.6902 9.32733 10.4777 8.79737 10.2864 8.3946C10.0455 7.87877 9.77633 7.13683 9.2521 6.84005C8.77038 6.57154 8.13989 6.71993 7.71484 7.06617C6.97809 7.66679 6.62388 8.59952 6.63096 9.53225C6.63096 9.7937 6.66638 10.0622 6.73014 10.3166C6.87891 10.9313 7.16228 11.5037 7.48106 12.0478C7.72192 12.4576 7.98404 12.8533 8.2674 13.242C9.19543 14.4927 10.3431 15.5809 11.6749 16.4005C12.3408 16.8104 13.0563 17.1637 13.8001 17.411C14.629 17.6866 15.3728 17.9692 16.2725 17.7996C17.2147 17.623 18.1427 17.0436 18.5182 16.1391C18.6315 15.8706 18.6811 15.5738 18.6244 15.2912C18.4969 14.6976 17.7035 14.3514 17.2289 14.0687Z" fill="white"/>
</g>
<defs>
<clipPath id="clip0_66_34">
<rect width="25" height="25" fill="white"/>
</clipPath>
</defs>
</svg>
