<svg width="25" height="21" viewBox="0 0 25 21" fill="none" xmlns="http://www.w3.org/2000/svg">
<g clip-path="url(#clip0_66_40)">
<path d="M24.8953 2.51619C24.0986 2.88419 23.2263 3.10381 22.3656 3.25219C22.7727 3.18097 23.3717 2.43309 23.6101 2.12444C23.9765 1.66147 24.2789 1.1332 24.4475 0.563388C24.4708 0.521839 24.4882 0.462483 24.4417 0.42687C24.3894 0.403128 24.3487 0.414999 24.308 0.438741C23.3542 0.96107 22.3656 1.34095 21.3131 1.60805C21.2258 1.63179 21.1619 1.60805 21.1037 1.55463C21.0165 1.45966 20.9351 1.36469 20.842 1.28159C20.4001 0.895779 19.9232 0.599001 19.3882 0.37345C18.6846 0.0826077 17.9169 -0.042039 17.1609 0.00544547C16.4224 0.0529299 15.7013 0.26661 15.05 0.616808C14.3929 0.967006 13.8113 1.45372 13.3461 2.03541C12.8634 2.64083 12.5087 3.35903 12.3284 4.11879C12.154 4.84886 12.1656 5.573 12.2761 6.31494C12.2935 6.43959 12.2819 6.45146 12.1714 6.43959C8.05417 5.81636 4.6464 4.31466 1.8725 1.09165C1.75038 0.949199 1.68641 0.949199 1.58755 1.10352C0.377969 2.95542 0.965315 5.93507 2.47729 7.40115C2.68083 7.59702 2.88437 7.7929 3.11116 7.97096C3.02975 7.98877 2.0237 7.87599 1.12233 7.40115C1.00021 7.32399 0.942053 7.36554 0.930423 7.50799C0.918792 7.7098 0.936238 7.8938 0.965315 8.10748C1.19793 9.98905 2.47148 11.7282 4.22189 12.4048C4.43124 12.4939 4.65803 12.571 4.88483 12.6126C4.48939 12.7016 4.0765 12.7669 2.9367 12.6719C2.79132 12.6422 2.73898 12.7194 2.79132 12.8559C3.64617 15.242 5.50125 15.9543 6.8853 16.3579C7.07139 16.3935 7.25748 16.3935 7.44356 16.4351C7.43193 16.4529 7.4203 16.4529 7.40867 16.4707C6.94926 17.1889 5.35587 17.7171 4.61151 17.9842C3.26236 18.465 1.79109 18.6846 0.366338 18.5422C0.139541 18.5066 0.0872034 18.5125 0.0290503 18.5422C-0.0349181 18.5837 0.023235 18.6372 0.0930187 18.6965C0.383784 18.8924 0.674549 19.0645 0.976945 19.2307C1.88413 19.7234 2.82621 20.1092 3.81481 20.3881C8.92065 21.8245 14.6662 20.768 18.4985 16.8862C21.505 13.8353 22.5634 9.62698 22.5634 5.41274C22.5634 5.24654 22.7553 5.15751 22.8658 5.06848C23.6508 4.46898 24.2789 3.75078 24.8662 2.94948C25 2.77141 25 2.61115 25 2.54586C25 2.53399 25 2.52212 25 2.52212C25 2.45089 24.9942 2.4687 24.8953 2.51619Z" fill="white"/>
</g>
<defs>
<clipPath id="clip0_66_40">
<rect width="25" height="21" fill="white"/>
</clipPath>
</defs>
</svg>
