<svg width="95" height="95" viewBox="0 0 95 95" fill="none" xmlns="http://www.w3.org/2000/svg">
<path fill-rule="evenodd" clip-rule="evenodd" d="M80.0889 41.5171C83.7679 41.5171 86.5979 37.3496 86.5979 33.782C86.5979 30.0881 83.7679 27.1203 80.0889 27.1203C76.5357 27.1203 73.5799 30.0881 73.5799 33.782C73.5799 37.3496 76.5357 41.5171 80.0889 41.5171ZM3.67899 94.6843H16.6026V67.3114H3.67899V94.6843ZM47.9841 94.6843H60.782V45.5583H47.9841V94.6843ZM25.5957 94.6843H38.3936V57.0821H25.5957V94.6843ZM68.6117 15.8175L78.4538 21.0585L71.819 0L53.4555 8.42971L62.9202 12.8182C62.6687 13.1655 62.5744 13.5444 62.4486 13.7654C61.9769 14.5862 61.5052 15.3124 61.0336 16.1333C60.782 16.4806 60.5619 16.9541 60.3104 17.333C60.0588 17.8066 59.8387 18.1538 59.4928 18.659C59.2412 19.1326 59.0211 19.4799 58.6752 19.9534C58.4237 20.427 58.0778 20.9006 57.8577 21.2479C57.1345 22.0688 56.4427 23.0475 55.7195 23.9947C54.9963 24.8155 54.3045 25.7627 53.4555 26.7414C52.6379 27.5623 51.7889 28.4147 50.9714 29.3619C50.028 30.1827 49.179 31.1299 48.2357 31.9824C47.6383 32.3296 47.1666 32.8032 46.6949 33.1821C46.2233 33.6557 45.7516 34.1293 45.1541 34.4766C44.2108 35.2027 43.1417 36.0236 42.0726 36.7498C41.4752 37.097 41.0035 37.4759 40.4061 37.8232L38.7395 38.8966C36.6013 40.3174 34.3687 41.3908 31.979 42.5905C29.715 43.664 27.4824 44.6112 25.2184 45.432C22.9544 46.2529 20.7219 46.8528 18.5836 47.4526C16.4454 48.0525 14.433 48.5261 12.5463 48.8734C10.7854 49.2207 8.9931 49.4733 7.45232 49.7258C5.91155 49.8521 4.59088 49.9784 3.55322 50.0731C1.32066 50.1994 0 50.1994 0 50.1994V50.5467C0 50.5467 5.09399 51.1466 12.7979 50.4204C14.6845 50.1678 16.697 49.9468 18.961 49.5995C21.0992 49.1259 23.4575 48.6524 25.8158 48.0525C28.1742 47.4526 30.564 46.6318 32.9223 45.8109C35.4064 44.8637 37.8905 43.9166 40.2803 42.7168L42.0412 41.7697C42.6386 41.4224 43.2361 41.0435 43.802 40.6962C44.9969 40.0964 46.1604 39.3702 47.2295 38.6756C47.8269 38.3283 48.4244 37.8548 48.896 37.4759C49.4935 37.1286 50.0909 36.655 50.5626 36.2761C51.6317 35.4553 52.7008 34.6028 53.7699 33.782C54.7132 32.9611 55.6566 31.9824 56.5999 31.1615C57.5432 30.2143 58.3608 29.3935 59.3356 28.4148C60.1531 27.4676 60.8764 26.6151 61.6939 25.668C62.0398 25.3207 62.4171 24.8471 62.763 24.3736C63.1089 23.9 63.4862 23.4264 63.8321 22.9528C64.178 22.6055 64.5553 22.1319 64.7755 21.7531C65.1213 21.2795 65.3729 20.8059 65.7188 20.4586C66.3162 19.5115 66.7879 18.7853 67.2596 17.9644C67.7627 17.2382 68.2343 16.5437 68.6117 15.8175ZM92.8867 46.0319C92.761 45.9056 92.761 45.6846 92.6352 45.5583C92.6352 45.432 92.5094 45.3057 92.3836 45.211C92.2579 45.0847 92.1321 44.8637 92.0378 44.7374C91.912 44.6112 91.7862 44.6112 91.6919 44.4849C91.5661 44.4849 91.4403 44.3586 91.346 44.2323C91.0944 44.2323 85.9061 42.3379 81.158 42.0854L80.4348 43.3798L82.1956 56.9242L80.0574 60.6181L78.045 56.9242L79.7116 43.3798L79.1141 42.0854C74.366 42.3379 69.1777 44.2323 68.9261 44.2323C68.6746 44.3586 68.5802 44.4849 68.4545 44.4849C68.3287 44.6112 68.2029 44.6112 68.1086 44.7374C67.9828 44.8637 67.857 45.0847 67.7627 45.211C67.6369 45.3373 67.5111 45.4636 67.5111 45.5583C67.3853 45.6846 67.3853 45.9056 67.2596 46.0319C67.2596 46.1582 67.2596 46.2844 67.1338 46.3792L65.1213 65.0698C64.9956 66.4905 65.9389 67.8165 67.3853 67.9113C67.5111 67.9113 67.6369 67.9113 67.7312 67.9113C69.0205 67.9113 70.0896 66.9641 70.2153 65.6381L72.102 48.6208C72.3536 48.6208 72.5737 48.4945 72.8252 48.3682V66.0801L70.8128 91.6534C70.687 93.4214 71.8819 94.8737 73.6428 95C73.7686 95 73.7686 95 73.8943 95C75.5609 95 76.8501 93.8003 76.9759 92.1269L78.8625 69.0478C79.2084 69.1741 79.5858 69.3004 80.0574 69.3004C80.5291 69.3004 80.875 69.1741 81.3781 69.0478L83.139 92.1269C83.2648 93.8003 84.6798 95 86.2205 95C86.3463 95 86.4721 95 86.4721 95C88.233 94.8737 89.4279 93.453 89.3021 91.6534L87.2896 66.0801V48.3682C87.5412 48.4945 87.7613 48.6208 88.0129 48.6208L89.8995 65.6381C90.0253 66.9325 91.1887 67.9113 92.3836 67.9113C92.5094 67.9113 92.6352 67.9113 92.7295 67.9113C94.1445 67.785 95.0879 66.4905 94.9935 65.0698L92.9811 46.3792C93.0125 46.2844 92.8867 46.1582 92.8867 46.0319Z" fill="#09B3DD"/>
</svg>
