<svg width="51" height="36" viewBox="0 0 51 36" fill="none" xmlns="http://www.w3.org/2000/svg">
<g opacity="0.8">
<path d="M18.7744 19.9302V35.4603H0V23.2951C0 16.6883 1.04796 11.9064 3.14387 8.9479C5.89518 5.00456 10.2508 2.0215 16.2143 0L20.4812 5.18057C16.8646 6.3065 14.2003 7.98374 12.4918 10.2071C10.7782 12.4344 9.82586 15.675 9.62958 19.9302H18.7744ZM48.9842 19.9302V35.4603H30.2098V23.2951C30.2098 16.6883 31.2577 11.9064 33.3537 8.9479C36.105 5.00456 40.4606 2.0215 46.4241 0L50.691 5.18057C47.0744 6.3065 44.4101 7.98374 42.7016 10.2071C40.988 12.4344 40.0357 15.675 39.8394 19.9302H48.9842Z" fill="#09B3DD"/>
</g>
</svg>
