<svg width="106" height="80" viewBox="0 0 106 80" fill="none" xmlns="http://www.w3.org/2000/svg">
<path d="M50.8252 0.108498C46.8487 0.769989 43.5348 2.71179 40.656 6.04059C38.6055 8.45184 36.9486 9.92419 34.8775 11.2472C31.5223 13.381 28.1256 14.3412 23.072 14.5546C18.9298 14.7467 17.8528 15.1948 16.6101 17.35L16.113 18.2462L10.5831 18.3102C5.32243 18.3742 5.01176 18.3956 4.10046 18.865C2.56782 19.6332 1.51155 20.7214 0.765938 22.2792L0.0824642 23.6875L0.0203302 29.5769C-0.0625151 35.8931 0.0824642 37.5148 0.931629 40.0754C3.10632 46.6904 9.31972 52.2597 16.3823 53.9454L18.412 54.4362L18.8676 55.6098C20.7938 60.6244 24.5011 66.151 28.3741 69.7786C35.2503 76.2014 44.2804 79.9784 52.8964 79.9997C67.1665 80.0637 81.188 70.2267 86.9044 56.2073L87.6086 54.4362L89.8454 53.8814C93.9462 52.8358 97.405 50.8087 100.367 47.6506C102.79 45.09 104.157 42.8708 105.11 39.9901C105.917 37.5362 106.062 35.8504 105.98 29.5769L105.917 23.6875L105.234 22.2792C104.488 20.7214 103.432 19.6332 101.899 18.865C100.988 18.3956 100.677 18.3742 95.4167 18.3102L89.8868 18.2462L89.3897 17.35C88.147 15.1948 87.0701 14.7467 82.9278 14.5546C79.2619 14.3839 76.7144 13.8931 74.229 12.8689C70.8531 11.4392 68.2435 9.45474 65.4267 6.14728C62.9414 3.22392 60.3732 1.4955 57.1422 0.577942C55.4024 0.0658188 52.3786 -0.147568 50.8252 0.108498ZM56.3137 4.09879C59.0476 4.88831 60.4767 5.99791 64.184 10.0736C68.8648 15.2375 74.7054 17.8194 82.5343 18.2035C85.351 18.3315 85.641 18.3742 86.0759 18.8223C86.4694 19.2278 86.5523 19.5478 86.5523 20.6361V21.9591L82.6793 21.831C78.3506 21.703 75.8031 21.2762 72.7378 20.1666C68.492 18.6303 64.4533 15.8563 61.4501 12.4635C58.8612 9.51876 58.2192 8.92128 56.8315 8.21711C53.352 6.46735 49.2512 7.25688 46.6001 10.2443C41.3602 16.1123 38.1085 18.4809 32.8478 20.2947C29.8654 21.3189 27.5664 21.6817 23.217 21.831L19.4476 21.9591V20.6361C19.4476 19.5478 19.5304 19.2278 19.9239 18.8223C20.3589 18.3742 20.6488 18.3315 23.4656 18.2035C31.2944 17.8194 37.1143 15.2588 41.8158 10.0736C42.665 9.13467 43.8869 7.83302 44.529 7.17152C45.6681 5.99791 47.7392 4.71761 49.3547 4.18414C51.4051 3.50131 54.1183 3.47997 56.3137 4.09879ZM55.216 11.4179C55.6717 11.6526 56.4794 12.2928 56.9558 12.8689C62.1543 18.8223 66.6487 22.0231 72.5721 23.9222C75.8445 24.9891 78.0399 25.3092 82.5757 25.4586L86.5523 25.5866V34.0793C86.5523 40.5876 86.4694 43.1268 86.2209 44.9619C84.564 57.2956 77.6671 67.346 67.1872 72.7233C61.8229 75.4973 55.7545 76.8203 50.7838 76.3081C37.6942 74.9852 26.1995 65.7883 21.7465 53.1346C19.7789 47.5226 19.4476 44.8339 19.4476 34.0793V25.5866L23.4241 25.4586C28.9955 25.2879 31.6672 24.7544 35.8095 23.0687C40.8838 20.9775 44.0112 18.5663 49.0233 12.8476C50.2039 11.5246 51.2809 11.0125 52.9999 11.0125C53.8698 11.0125 54.6361 11.1618 55.216 11.4179ZM15.9266 32.3936C15.9266 43.1908 16.0509 45.3674 16.8379 48.8669C17.0243 49.6777 17.1486 50.3606 17.1072 50.4032C16.9829 50.5313 14.104 49.4003 12.7578 48.6748C7.97348 46.1356 4.55611 41.6972 3.72766 36.96C3.60339 36.2558 3.49983 33.2471 3.49983 30.2384C3.49983 25.3732 3.54126 24.6904 3.89335 23.9009C4.24544 23.09 5.01176 22.3432 5.77808 22.0444C5.94377 21.9804 8.30486 21.9164 11.018 21.9164L15.9266 21.8951V32.3936ZM101.029 22.5139C102.376 23.5168 102.5 24.0929 102.5 30.3238C102.5 36.6186 102.334 37.8776 101.133 40.4595C99.5176 43.959 96.4937 47.0744 92.8692 48.8669C91.1916 49.7204 88.8305 50.5953 88.8305 50.3819C88.8305 50.3392 88.9755 49.6564 89.1619 48.8455C89.9489 45.3674 90.0732 43.1695 90.0732 32.3936V21.8737L95.2096 21.9377C100.222 22.0018 100.346 22.0018 101.029 22.5139Z" fill="white"/>
<path d="M33.0414 33.045C32.008 33.3973 31.6463 34.6462 32.4042 35.3027C32.8347 35.671 34.1954 35.9112 38.6391 36.3595C43.6339 36.8719 46.3897 37 52.504 37C59.669 37 64.5605 36.6958 70.5026 35.8792C72.4833 35.6069 73 35.3027 73 34.4221C73 32.997 72.4833 32.8689 68.7113 33.3332C57.7916 34.7103 43.7717 34.5822 33.7304 33.029C33.4892 32.981 33.1792 32.997 33.0414 33.045Z" fill="white"/>
<path d="M32.3926 43.3598C31.8634 43.9592 31.8634 44.9399 32.4278 45.4847C33.1334 46.1749 38.7425 47.6278 43.2933 48.2997C50.1018 49.3168 57.7746 49.226 64.4067 48.0273C68.6753 47.2645 72.9439 46.0841 73.5788 45.4666C74.1433 44.9217 74.1433 43.8865 73.5612 43.3417C73.0144 42.815 72.4323 42.8695 69.2221 43.7412C63.6306 45.2668 59.1151 45.8661 53.0298 45.8661C46.9974 45.8661 42.623 45.3031 37.1197 43.832C33.5038 42.8513 32.9217 42.7968 32.3926 43.3598Z" fill="white"/>
<path d="M32.5171 53.6071C31.5723 54.7584 31.9222 55.8469 33.5668 56.7889C38.0283 59.3427 43.7845 61.2058 49.0683 61.7919C56.819 62.6501 65.3045 60.829 72.4604 56.7889C73.5976 56.14 74 55.5748 74 54.6537C74 54.0885 73.0727 53 72.6003 53C72.3904 53 71.3406 53.4605 70.2559 54.0467C59.1984 59.9079 46.4789 59.8451 35.4039 53.8583C34.5116 53.3977 33.6193 53 33.4094 53C33.1994 53 32.797 53.2721 32.5171 53.6071Z" fill="white"/>
</svg>
