<svg width="73" height="95" viewBox="0 0 73 95" fill="none" xmlns="http://www.w3.org/2000/svg">
<path d="M46.7475 28.3986L24.3467 50.9052C23.9788 51.275 23.9788 51.8713 24.3467 52.253C24.7145 52.6227 25.3196 52.6227 25.6874 52.253L48.0763 29.7464C48.4441 29.3767 48.4441 28.7684 48.0763 28.3986C47.7085 28.0289 47.1153 28.0289 46.7475 28.3986Z" fill="#FBF3E4"/>
<path d="M43.8998 43.0214L32.5214 54.4595C32.3316 54.6504 32.3791 54.9963 32.6164 55.2348C32.8537 55.4733 33.1977 55.521 33.3876 55.3302L44.766 43.892C44.9558 43.7012 44.9083 43.3553 44.671 43.1168C44.4337 42.8663 44.0897 42.8305 43.8998 43.0214Z" fill="#FBF3E4"/>
<path d="M4.37813 0C1.9577 0 0 1.96799 0 4.40113V90.5989C0 93.032 1.9577 95 4.37813 95H68.0448C70.4653 95 72.423 93.032 72.423 90.5989V4.40113C72.423 1.96799 70.4653 0 68.0448 0H4.37813ZM36.6979 2.09918C37.2556 2.09918 37.7065 2.55242 37.7065 3.11299C37.7065 3.67357 37.2556 4.1268 36.6979 4.1268C36.1403 4.1268 35.6894 3.67357 35.6894 3.11299C35.6894 2.55242 36.1403 2.09918 36.6979 2.09918ZM33.2215 5.93974H40.1862C40.6727 5.93974 41.0642 6.34526 41.0642 6.85813C41.0642 7.35907 40.6727 7.7646 40.1862 7.7646H33.2215C32.7351 7.7646 32.3436 7.35907 32.3436 6.85813C32.3436 6.35719 32.7351 5.93974 33.2215 5.93974ZM30.1248 6.05901C30.5638 6.05901 30.9198 6.41682 30.9198 6.85813C30.9198 7.29944 30.5638 7.65725 30.1248 7.65725C29.6858 7.65725 29.3299 7.29944 29.3299 6.85813C29.3299 6.41682 29.6858 6.05901 30.1248 6.05901ZM36.2115 91.6365C33.7317 91.6365 31.7147 89.6208 31.7147 87.1161C31.7147 84.6234 33.7317 82.5957 36.2115 82.5957C38.6912 82.5957 40.7083 84.6234 40.7083 87.1161C40.7083 89.6089 38.7031 91.6365 36.2115 91.6365ZM65.1973 80.3057H7.23755V10.7464H65.1973V80.3057Z" fill="#FBF3E4"/>
</svg>
