<svg width="98" height="98" viewBox="0 0 98 98" fill="none" xmlns="http://www.w3.org/2000/svg">
<g clip-path="url(#clip0_210_37)" filter="url(#filter0_d_210_37)">
<path d="M60.6543 0.263657C59.3008 0.632797 58.3691 1.16014 57.3496 2.12694C55.3984 3.97264 54.9766 5.41405 54.9766 10.248C54.9766 14.1152 55.082 14.5898 56.0312 14.9062L56.5586 15.0996V17.0156C56.5586 18.7207 56.6113 19.0019 56.9629 19.5117C57.4727 20.2676 58.123 20.7422 58.8613 20.9004L59.459 21.0234L59.5117 23.9414L59.5469 26.8418L58.5449 26.9648C57.9297 27.0351 55.4336 27.8613 52.3398 28.9863L47.1543 30.8848L46.6797 30.0586C46.0469 28.9336 44.7812 27.8613 43.5684 27.4043C42.7773 27.1055 42.3203 27.0527 41.1777 27.1055C39.4902 27.2109 38.3652 27.6855 37.2754 28.7578C36.2383 29.8125 35.8691 30.6387 35.3945 33.0644C35.1484 34.2422 34.9023 35.2617 34.8145 35.3496C34.6914 35.4726 24.6895 39.1816 24.6191 39.1289C24.6016 39.1289 24.6895 38.707 24.7949 38.2324C24.9004 37.7402 24.9883 35.5254 24.9883 33.3105C25.0059 29.7422 24.9531 29.0215 24.6016 27.2461C24.1094 24.8555 23.1602 21.7969 22.4043 20.25C20.2246 15.7851 13.8262 15.7148 11.6641 20.1445C11.0137 21.4453 10.9082 22.834 11.2773 24.7676C11.6289 26.5957 11.6465 29.2676 11.2949 31.043C10.8906 33.1523 10.2402 34.3476 8.44727 36.2285C5.88086 38.9355 4 41.625 4 42.5918C4 43.541 5.17773 44.2266 6.17969 43.8398C6.32031 43.7871 6.95312 42.9609 7.58594 42.0293C8.21875 41.0801 9.55469 39.4277 10.5566 38.3555C13.4746 35.2441 14.3184 33.2226 14.4941 28.8809C14.5645 27.1055 14.5293 26.0684 14.2832 24.5391C13.9492 22.3769 13.9844 21.9902 14.582 21.0937C15.1973 20.2148 16.0234 19.8281 17.2012 19.8984C18.9414 20.0215 19.5918 20.7949 20.6816 24.0293C21.6133 26.8242 21.9473 28.793 22.0527 32.1152C22.123 34.4531 22.0879 35.6133 21.8418 37.2656C21.5605 39.2695 21.5605 39.4629 21.8418 40.1836C22.334 41.4844 23.7578 42.3457 25.0059 42.1172C25.3223 42.0469 27.2031 41.4141 29.1543 40.6934C31.1055 39.9726 32.7402 39.4101 32.793 39.4453C32.8281 39.498 32.4062 40.0078 31.8613 40.5879C31.0352 41.4668 30.4375 41.8711 28.5742 42.8027C27.3262 43.4355 25.8145 44.2793 25.2168 44.6836C22.5977 46.4414 19.9609 48.9551 17.9219 51.6269C16.6738 53.2617 15.8125 54.0176 14.1953 54.8965C12.209 55.9687 9.67773 56.6367 6.44336 56.9355C4.98438 57.0762 4.77344 57.1289 4.4043 57.5508C3.87695 58.1836 3.87695 58.957 4.43945 59.5019C4.80859 59.8887 5.01953 59.9414 6.05664 59.9414C8.76367 59.9414 12.5781 59.0098 15.1621 57.7441C17.2188 56.7422 18.8008 55.4062 20.1895 53.5781C21.5957 51.7148 24.0918 49.2187 25.9023 47.8652C26.6934 47.2851 28.5391 46.1953 30.0156 45.4394C32.248 44.2969 32.8809 43.875 33.8828 42.8906C35.2012 41.5898 36.4316 39.6562 37.2227 37.5996C37.6797 36.4219 37.873 35.6484 38.6465 32.3437C39.2266 29.7773 42.5312 29.2148 44.0078 31.4121C44.4824 32.1152 44.6758 33.7676 44.5176 35.8242C44.166 40.6934 43.041 44.6484 40.8965 48.6211C40.2285 49.8516 40.0352 50.4141 40.0352 50.9941C40.0352 52.0137 40.6504 53.0684 41.5293 53.5605L42.2324 53.9648H59.9863C71.4297 53.9648 77.9688 54.0351 78.3906 54.1406C79.1113 54.3516 80.2188 55.459 80.3945 56.1621C80.7285 57.5156 79.9551 59.2031 78.7773 59.6953C78.2852 59.9062 75.666 59.9414 63.502 59.9414C47.9102 59.9414 48.0156 59.9414 47.6992 60.7324C47.4707 61.3652 47.5938 62.1738 47.998 62.543L48.4023 62.9297H66.8594C86.3887 62.9473 86.0898 62.9297 87.0039 63.7558C87.4961 64.1777 88.0234 65.3555 88.0234 66.0058C88.0234 66.9023 87.4082 67.957 86.5996 68.5019L85.8438 68.9941L67.123 69.0469L48.4023 69.0996L47.998 69.4687C47.7344 69.7148 47.5938 70.0488 47.5938 70.4355C47.5938 71.2617 47.8398 71.6484 48.4902 71.8769C48.877 72.0176 53.4824 72.0703 63.7656 72.0703H78.4785L79.0586 72.4746C79.375 72.6855 79.7969 73.0723 79.9902 73.3183C80.4121 73.8984 80.5703 75.1816 80.3066 75.9726C80.0605 76.7109 79.1641 77.5898 78.373 77.8535C77.9512 77.9941 73.5742 78.0469 63.1328 78.0469H48.4902L48.0508 78.4336C47.5586 78.873 47.4531 79.2949 47.6465 80.0156C47.8926 80.9648 47.6992 80.9473 59.8457 81.0351C70.8848 81.123 71.1309 81.123 71.6055 81.4922C72.6777 82.2832 73.1699 83.4785 72.9062 84.6738C72.6953 85.5703 72.2207 86.1504 71.3066 86.625L70.5332 87.0293L46.8906 86.959C25.6738 86.9062 23.1074 86.8711 21.9473 86.6074C20.5059 86.291 18.959 85.623 17.4648 84.6562C14.3184 82.6523 10.5742 81.3867 6.90039 81.1055C5.08984 80.9648 4.59766 81.0703 4.26367 81.7383C3.87695 82.4766 3.92969 82.9336 4.49219 83.4785C4.91406 83.918 5.14258 83.9707 6.54883 84.0762C9.44922 84.2871 12.9473 85.3945 15.2852 86.8535C17.2363 88.0664 19.1172 88.9629 20.4707 89.3144C23.0195 89.9648 25.6035 90.0176 48.9121 89.9648L71.4121 89.9121L72.502 89.4023C75.4551 88.0488 76.7383 84.6914 75.4727 81.668L75.209 81.0351H76.5625C79.832 81.0351 81.9766 79.7519 83.0488 77.1855C83.6465 75.6914 83.5938 74.1269 82.8555 72.4043C82.75 72.1582 82.9609 72.1055 84.4551 72.0176C87.5137 71.8594 89.2363 70.8398 90.3438 68.5898C90.8535 67.5703 90.9238 67.2539 90.9238 66.0058C90.9238 64.8457 90.8359 64.4238 90.4668 63.6152C89.8164 62.2441 88.8848 61.2773 87.584 60.6269C86.6172 60.1523 86.2305 60.0644 84.5957 59.9766C82.9785 59.9062 82.75 59.8535 82.8555 59.6074C83.3828 58.3769 83.4883 57.832 83.418 56.6016C83.3301 55.2656 82.9961 54.334 82.1699 53.2266C81.7305 52.6289 80.2012 51.5566 79.5684 51.416C79.1641 51.3105 79.0938 51.1699 78.9004 50.0976C78.7598 49.3242 78.4609 48.5332 78.0742 47.8828L77.4766 46.8809L77.5117 33.9609L77.5645 21.0234L78.1621 20.9004C78.8477 20.7598 79.498 20.3027 80.0078 19.6172C80.3242 19.2129 80.377 18.8262 80.4297 17.0332C80.4648 15.8906 80.5527 14.9414 80.6055 14.9414C80.6758 14.9414 81.2559 15.0644 81.8887 15.1875C84.2969 15.6973 87.0566 17.5078 89.957 20.4785C90.8711 21.4101 91.75 22.2539 91.9082 22.3418C92.4531 22.623 92.9629 22.5176 93.4902 21.9902L94 21.4805V13.5351C94 8.63084 93.9297 5.48436 93.8242 5.27342C93.3848 4.46483 89.0078 2.03905 86.1953 1.07225C83.2598 0.035141 82.6621 -1.52588e-05 71.6055 0.0175629C63.5371 0.0175629 61.3926 0.0702972 60.6543 0.263657ZM84.2266 3.56834C86.002 4.13084 87.8828 4.95702 89.7461 6.0117L91.0117 6.74998V11.9883V17.2441L89.9043 16.2949C88.3047 14.9414 86.7754 13.9394 85.1406 13.1836C82.5566 11.9707 82.3984 11.9531 69.4785 11.9531H57.9648V9.52733C57.9648 7.83983 58.0527 6.8203 58.2461 6.16991C58.6504 4.78123 59.8281 3.6035 61.3047 3.14647C61.5508 3.07616 66.4551 3.02342 72.2031 3.041L82.6621 3.09373L84.2266 3.56834ZM77.4766 16.4355V17.9297H68.5117H59.5469V16.4355V14.9414H68.5117H77.4766V16.4355ZM66.9297 24.6797C66.9297 26.9648 67 28.6348 67.123 28.9863C67.4043 29.7598 68.1602 30.1465 68.9512 29.8828C69.2852 29.7773 69.6191 29.584 69.6895 29.4785C69.7773 29.3555 69.8652 27.4043 69.918 25.1367L70.0059 21.0059L72.2559 20.9531L74.4883 20.9004V33.0293V45.1406L73.3984 45.0527C72.6777 45 71.9746 45.0703 71.4121 45.2461C70.9375 45.4043 70.5156 45.457 70.4805 45.3691C70.3398 44.9473 69.3379 43.6113 68.7402 43.0312C67.3867 41.7129 65.5586 40.8867 63.2031 40.5176L62.5352 40.4121V30.6738V20.918H64.7324H66.9297V24.6797ZM59.5117 32.959L59.5469 35.9473L56.3652 37.1074L53.166 38.2676L52.5684 37.0723C51.918 35.7891 50.6875 34.5234 49.457 33.8906C49.0527 33.6797 48.8242 33.4863 48.9121 33.4512C49.0176 33.416 51.2324 32.6074 53.834 31.6406C56.4531 30.6738 58.7734 29.9004 59.0195 29.9355L59.459 29.9707L59.5117 32.959ZM48.2617 36.6328C49.8438 37.459 50.7578 39.6562 50.3359 41.6074C50.1953 42.2226 50.5645 43.1367 51.0215 43.2949C51.1621 43.3652 51.6895 43.4531 52.1641 43.5234C53.377 43.6816 54.0801 44.209 54.7129 45.3867C55.627 47.1269 56.4355 47.1973 57.8945 45.6855C59.3184 44.209 60.3203 43.7344 62.1309 43.6289C65.0312 43.4707 67.1758 44.8945 68.1777 47.6543C68.3887 48.2168 68.7051 48.8144 68.8984 48.9726C69.3906 49.4297 70.3398 49.3418 70.9727 48.7969C72.7656 47.2851 75.3848 48.1113 75.8945 50.3613L76.0352 50.9766H59.5469H43.041L43.8145 49.5176C44.7812 47.6894 45.6602 45.5098 46.2578 43.4531C46.7676 41.6426 47.418 38.1269 47.418 37.0723C47.418 36.3164 47.541 36.2637 48.2617 36.6328ZM59.5469 40.0781V40.957L58.6328 41.4141C58.123 41.6601 57.4551 42.0644 57.1562 42.293L56.5938 42.6973L56.2773 42.3281C56.084 42.1172 55.6094 41.748 55.1875 41.4844L54.4492 40.9922L56.5059 40.2539C57.6484 39.832 58.7383 39.4277 58.9316 39.3574C59.5117 39.1289 59.5469 39.1641 59.5469 40.0781Z" fill="white"/>
<path d="M67.4399 33.5039C67.0708 33.9082 67.018 34.1367 66.9653 35.666C66.9126 36.9141 66.9653 37.5469 67.1762 38.0215C67.5981 39.0762 68.7759 39.2871 69.5669 38.4961C69.8833 38.1797 69.9184 37.8984 69.9184 35.9648C69.9184 33.8027 69.9184 33.7676 69.4614 33.416C68.811 32.9062 67.9673 32.9414 67.4399 33.5039Z" fill="white"/>
</g>
<defs>
<filter id="filter0_d_210_37" x="0" y="0" width="98" height="98" filterUnits="userSpaceOnUse" color-interpolation-filters="sRGB">
<feFlood flood-opacity="0" result="BackgroundImageFix"/>
<feColorMatrix in="SourceAlpha" type="matrix" values="0 0 0 0 0 0 0 0 0 0 0 0 0 0 0 0 0 0 127 0" result="hardAlpha"/>
<feOffset dy="4"/>
<feGaussianBlur stdDeviation="2"/>
<feComposite in2="hardAlpha" operator="out"/>
<feColorMatrix type="matrix" values="0 0 0 0 0 0 0 0 0 0 0 0 0 0 0 0 0 0 0.25 0"/>
<feBlend mode="normal" in2="BackgroundImageFix" result="effect1_dropShadow_210_37"/>
<feBlend mode="normal" in="SourceGraphic" in2="effect1_dropShadow_210_37" result="shape"/>
</filter>
<clipPath id="clip0_210_37">
<rect width="90" height="90" fill="white" transform="translate(4)"/>
</clipPath>
</defs>
</svg>
